<svg xmlns="http://www.w3.org/2000/svg" width="31" height="22.241" viewBox="0 0 31 22.241"><defs><style>.a{fill:#0a655e;}</style></defs><g transform="translate(0 -58.303)"><g transform="translate(0 58.303)"><path class="a" d="M30.4,60.154H28.356v-.7a.6.6,0,0,0-.433-.6,16.926,16.926,0,0,0-4.332-.553,11.175,11.175,0,0,0-8.1,3,11.057,11.057,0,0,0-8.1-3,16.926,16.926,0,0,0-4.332.553.6.6,0,0,0-.433.6v.691H.6a.6.6,0,0,0-.6.6V79.941a.6.6,0,0,0,.9.523,21.185,21.185,0,0,1,14.457-1.2H15.5a.6.6,0,0,0,.144,0c8.412-2.133,14.421,1.148,14.457,1.2a.6.6,0,0,0,.9-.517V60.755A.6.6,0,0,0,30.4,60.154ZM1.2,78.986V61.356H2.638v15.07a.6.6,0,0,0,.691.6,26.3,26.3,0,0,1,3.756-.3,15.587,15.587,0,0,1,5.132.775A22.09,22.09,0,0,0,1.2,78.986Zm5.883-3.455a26.442,26.442,0,0,0-3.269.21V59.932a16.573,16.573,0,0,1,3.563-.4,9.811,9.811,0,0,1,7.5,2.944L14.9,77.448A14.046,14.046,0,0,0,7.085,75.531ZM16.1,62.48a9.9,9.9,0,0,1,7.5-2.944,16.645,16.645,0,0,1,3.563.4V75.741a26.435,26.435,0,0,0-3.251-.216A14.163,14.163,0,0,0,16.1,77.442ZM29.792,78.986A22.094,22.094,0,0,0,18.754,77.5a15.624,15.624,0,0,1,5.156-.775,26.288,26.288,0,0,1,3.78.294.6.6,0,0,0,.691-.6V61.356h1.436Z" transform="translate(0 -58.303)"/></g></g></svg>