<svg xmlns="http://www.w3.org/2000/svg" width="20.507" height="27.841" viewBox="0 0 20.507 27.841"><defs><style>.a{fill:#0a655e;}</style></defs><g transform="translate(-78.957)"><g transform="translate(78.957)"><path class="a" d="M89.21,0C83.557,0,78.957,4.239,78.957,9.449c0,2.094,1.338,5.278,4.209,10.02,1.96,3.236,3.91,5.969,3.993,6.084l1.41,1.969a.805.805,0,0,0,1.283,0l1.41-1.969c.081-.114,2.018-2.824,3.993-6.085,2.872-4.742,4.209-7.926,4.209-10.02C99.464,4.239,94.864,0,89.21,0Zm4.7,18.779c-1.947,3.215-3.853,5.883-3.934,5.995l-.769,1.074-.768-1.073c-.081-.113-2-2.8-3.934-5.995-2.664-4.4-4.015-7.538-4.015-9.33,0-4.429,3.91-8.033,8.717-8.033s8.717,3.6,8.717,8.033C97.927,11.241,96.577,14.38,93.913,18.779Z" transform="translate(-78.957)"/><path class="a" d="M158.976,73.291a5.685,5.685,0,1,0,5.685,5.685A5.691,5.691,0,0,0,158.976,73.291Zm0,9.833a4.148,4.148,0,1,1,4.148-4.148A4.153,4.153,0,0,1,158.976,83.124Z" transform="translate(-148.723 -68.787)"/></g></g></svg>