<svg xmlns="http://www.w3.org/2000/svg" width="13.056" height="16.517" viewBox="0 0 13.056 16.517"><defs><style>.a{fill:#6e8484;}</style></defs><g transform="translate(-74.133)"><g transform="translate(74.133)"><path class="a" d="M93.063,1.945H90.857V.512A.512.512,0,0,0,90.336,0a.078.078,0,0,0-.056.019A.071.071,0,0,0,90.243,0H84.985a.5.5,0,0,0-.512.512V1.945H82.259a1.112,1.112,0,0,0-1.126,1.126V4.913h.977V15.4a1.1,1.1,0,0,0,1.117,1.117H92.1A1.1,1.1,0,0,0,93.221,15.4V4.913h.968V3.071A1.112,1.112,0,0,0,93.063,1.945ZM85.5,1.024h4.327v.921H85.5ZM92.188,15.4c0,.065-.028.093-.093.093H83.227c-.065,0-.093-.028-.093-.093V4.913h9.054ZM93.156,3.89H82.166V3.071c0-.065.028-.1.093-.1h10.8c.065,0,.093.037.093.1Z" transform="translate(-81.133)"/><rect class="a" width="1.033" height="8.468" transform="translate(8.403 6.114)"/><rect class="a" width="1.033" height="8.468" transform="translate(6.021 6.114)"/><rect class="a" width="1.033" height="8.468" transform="translate(3.638 6.114)"/></g></g></svg>